<svg width="51" height="64" viewBox="0 0 51 64" fill="none" xmlns="http://www.w3.org/2000/svg">
<path fill-rule="evenodd" clip-rule="evenodd" d="M3.58301 2.57288C2.47844 2.57288 1.58301 3.46831 1.58301 4.57288V61.5946C1.58301 62.6991 2.47844 63.5946 3.58301 63.5946H46.289C47.3936 63.5946 48.289 62.6991 48.289 61.5946V4.57288C48.289 3.46831 47.3936 2.57288 46.289 2.57288H3.58301ZM26.7192 12.9454C26.167 12.9454 25.7192 13.3932 25.7192 13.9454V15.5283C25.7192 16.0806 26.167 16.5283 26.7192 16.5283H42.7197C43.272 16.5283 43.7197 16.0806 43.7197 15.5283V13.9454C43.7197 13.3932 43.272 12.9454 42.7197 12.9454H26.7192ZM6.09961 42.6082C6.09961 42.0559 6.54732 41.6082 7.09961 41.6082H42.7196C43.2719 41.6082 43.7196 42.0559 43.7196 42.6082V44.191C43.7196 44.7433 43.2719 45.191 42.7196 45.191H7.09961C6.54732 45.191 6.09961 44.7433 6.09961 44.191V42.6082ZM26.7192 21.9025C26.167 21.9025 25.7192 22.3502 25.7192 22.9025V24.4853C25.7192 25.0376 26.167 25.4853 26.7192 25.4853H42.7197C43.272 25.4853 43.7197 25.0376 43.7197 24.4853V22.9025C43.7197 22.3502 43.272 21.9025 42.7197 21.9025H26.7192ZM25.7192 31.8594C25.7192 31.3071 26.167 30.8594 26.7192 30.8594H42.7197C43.272 30.8594 43.7197 31.3071 43.7197 31.8594V33.4422C43.7197 33.9945 43.272 34.4422 42.7197 34.4422H26.7192C26.167 34.4422 25.7192 33.9945 25.7192 33.4422V31.8594ZM7.09961 51.5653C6.54732 51.5653 6.09961 52.013 6.09961 52.5653V54.1482C6.09961 54.7005 6.54732 55.1482 7.09961 55.1482H42.7196C43.2719 55.1482 43.7196 54.7005 43.7196 54.1482V52.5653C43.7196 52.013 43.2719 51.5653 42.7196 51.5653H7.09961ZM17.0729 15.5284C17.0729 18.0018 15.0677 20.007 12.5943 20.007C10.1208 20.007 8.11572 18.0018 8.11572 15.5284C8.11572 13.0549 10.1208 11.0498 12.5943 11.0498C15.0677 11.0498 17.0729 13.0549 17.0729 15.5284ZM18.9638 29.1726V35.4426H12.5944H6.2251V29.1726V28.4759H6.26397C6.61601 25.341 9.31595 22.9026 12.5944 22.9026C15.8729 22.9026 18.5728 25.341 18.9249 28.4759H18.9638V29.1726Z" fill="currentColor"/>
</svg>
